<?xml version="1.0" encoding="UTF-8"?>
<svg version="1.1" xmlns="http://www.w3.org/2000/svg" width="553" height="430">
<path d="M0 0 C182.49 0 364.98 0 553 0 C553 141.9 553 283.8 553 430 C370.51 430 188.02 430 0 430 C0 288.1 0 146.2 0 0 Z " fill="#020202" transform="translate(0,0)"/>
<path d="M0 0 C-0.48859497 0.73597412 -0.48859497 0.73597412 -0.98706055 1.48681641 C-11.45176619 17.29795896 -21.85061755 33.28539824 -30.25 50.3125 C-30.56066406 50.94051514 -30.87132812 51.56853027 -31.19140625 52.21557617 C-32.49525708 54.87155593 -33.78322032 57.53245618 -35.02783203 60.21679688 C-39.6881674 70.23088127 -43.40831708 77.26838838 -54 82 C-48.375 79 -48.375 79 -45 79 C-47.55355189 86.76985362 -50.26074908 94.48134262 -53 102.1875 C-53.65742188 104.05438477 -53.65742188 104.05438477 -54.328125 105.95898438 C-54.75609375 107.16232422 -55.1840625 108.36566406 -55.625 109.60546875 C-56.00914062 110.68981201 -56.39328125 111.77415527 -56.7890625 112.89135742 C-60.07306404 121.32183959 -60.07306404 121.32183959 -62.80932617 123.32373047 C-63.46392822 123.58557129 -64.11853027 123.84741211 -64.79296875 124.1171875 C-65.50517578 124.41367188 -66.21738281 124.71015625 -66.95117188 125.015625 C-67.68916016 125.29921875 -68.42714844 125.5828125 -69.1875 125.875 C-69.93708984 126.18179688 -70.68667969 126.48859375 -71.45898438 126.8046875 C-73.29868638 127.55462972 -75.1484404 128.27983068 -77 129 C-72.38 127.68 -67.76 126.36 -63 125 C-61.02407346 130.92777962 -65.80361949 137.55151714 -68.42578125 142.91796875 C-74.77494714 155.05154992 -84.04179328 167.52875716 -97 173 C-97.99 173 -98.98 173 -100 173 C-100.29716395 166.94941181 -99.23354557 161.66639629 -97.75 155.8125 C-97.49549072 154.8016333 -97.24098145 153.7907666 -96.97875977 152.74926758 C-94.36385067 142.76687977 -91.18980132 132.97728707 -87.9375 123.1875 C-87.68246704 122.41532135 -87.42743408 121.6431427 -87.16467285 120.8475647 C-84.22660883 111.98897427 -81.08700928 103.40658678 -77 95 C-76.07026924 93.03517672 -75.1405831 91.07033232 -74.2109375 89.10546875 C-73.26672985 87.13228343 -72.32141355 85.15962824 -71.375 83.1875 C-70.89804687 82.19041016 -70.42109375 81.19332031 -69.9296875 80.16601562 C-67.65809771 75.42407193 -65.37373594 70.69171299 -63 66 C-68.71730804 73.79632915 -72.8553698 82.31075564 -77 91 C-77.38704102 91.80066895 -77.77408203 92.60133789 -78.17285156 93.42626953 C-92.81764509 123.8682919 -102.12816426 155.77863196 -108.53857422 188.86889648 C-109 191 -109 191 -110 194 C-111.65 194 -113.3 194 -115 194 C-115.02753831 192.4792733 -115.04663375 190.95839326 -115.0625 189.4375 C-115.07410156 188.59058594 -115.08570313 187.74367188 -115.09765625 186.87109375 C-115 184 -115 184 -114.26171875 180.58984375 C-113.93605282 176.12287381 -115.38305018 173.71908887 -117.75 170.125 C-127.12478921 154.87604437 -128.65555791 136.24965361 -124.66479492 118.84130859 C-122.515893 110.515893 -122.515893 110.515893 -120 108 C-118.515 114.435 -118.515 114.435 -117 121 C-117.165 119.39125 -117.33 117.7825 -117.5 116.125 C-117.6696831 114.08358182 -117.8363355 112.04190952 -118 110 C-118.09152344 109.15179688 -118.18304688 108.30359375 -118.27734375 107.4296875 C-119.08874509 95.12013542 -109.39633688 84.93987994 -102.609375 75.4296875 C-102.15530273 74.79272949 -101.70123047 74.15577148 -101.23339844 73.49951172 C-100 72 -100 72 -98 71 C-97.67 71.99 -97.34 72.98 -97 74 C-97.020625 73.05125 -97.04125 72.1025 -97.0625 71.125 C-96.19713326 65.06743283 -91.06382203 61.19531704 -87 57 C-85.47377151 55.27559344 -83.95279376 53.54652312 -82.4375 51.8125 C-78.6088811 47.56071795 -74.65014584 43.36773152 -70 40 C-69.34 40 -68.68 40 -68 40 C-67.78472656 39.43410156 -67.56945312 38.86820313 -67.34765625 38.28515625 C-60.11253227 26.01690255 -13.96174144 -4.65391381 0 0 Z " fill="#F1AA25" transform="translate(389,81)"/>
<path d="M0 0 C0.66 0.33 1.32 0.66 2 1 C2 1.66 2 2.32 2 3 C2.15899529 5.20889891 2.3268366 7.4171666 2.5 9.625 C2.5928125 10.81351563 2.685625 12.00203125 2.78125 13.2265625 C2.88953125 14.59941406 2.88953125 14.59941406 3 16 C3.99 16.33 4.98 16.66 6 17 C6 19.31 6 21.62 6 24 C6.66 24.33 7.32 24.66 8 25 C7.505 25.37125 7.01 25.7425 6.5 26.125 C4.70105508 27.94615888 4.70105508 27.94615888 5.1484375 30.65234375 C4.95806075 34.94584055 3.23029577 37.81359464 1.125 41.4375 C-16.65475286 73.64910097 -26.45623336 108.93005864 -33.52270508 144.82128906 C-34 147 -34 147 -35 150 C-36.65 150 -38.3 150 -40 150 C-40.02753831 148.4792733 -40.04663375 146.95839326 -40.0625 145.4375 C-40.07410156 144.59058594 -40.08570313 143.74367188 -40.09765625 142.87109375 C-40 140 -40 140 -39.26171875 136.58984375 C-38.93605282 132.12287381 -40.38305018 129.71908887 -42.75 126.125 C-52.12478921 110.87604437 -53.65555791 92.24965361 -49.66479492 74.84130859 C-47.515893 66.515893 -47.515893 66.515893 -45 64 C-43.515 70.435 -43.515 70.435 -42 77 C-42.165 75.39125 -42.33 73.7825 -42.5 72.125 C-42.6696831 70.08358182 -42.8363355 68.04190952 -43 66 C-43.09152344 65.15179688 -43.18304688 64.30359375 -43.27734375 63.4296875 C-44.08874509 51.12013542 -34.39633688 40.93987994 -27.609375 31.4296875 C-27.15530273 30.79272949 -26.70123047 30.15577148 -26.23339844 29.49951172 C-25 28 -25 28 -23 27 C-22.67 27.99 -22.34 28.98 -22 30 C-22.020625 29.05125 -22.04125 28.1025 -22.0625 27.125 C-21.19756513 21.07045594 -16.06581856 17.19015552 -12 13 C-10.3678726 11.19391545 -8.74258524 9.38162045 -7.125 7.5625 C-4.80765554 4.97521398 -2.48348612 2.42881818 0 0 Z " fill="#F07822" transform="translate(314,125)"/>
<path d="M0 0 C0.33 0 0.66 0 1 0 C1.05534912 0.92224365 1.11069824 1.8444873 1.16772461 2.79467773 C1.3765306 6.25572935 1.58737976 9.71664449 1.79956055 13.17749023 C1.89053373 14.66800128 1.98072065 16.15856055 2.07006836 17.64916992 C2.19952943 19.80661335 2.33193114 21.96386052 2.46484375 24.12109375 C2.543396 25.4145874 2.62194824 26.70808105 2.70288086 28.04077148 C2.90929198 30.7912802 3.16394927 33.49219787 3.49072266 36.22680664 C4.14070532 41.88770872 4.40335462 47.56073683 4.68359375 53.25 C4.80790863 55.65885593 4.93225879 58.06771003 5.05664062 60.4765625 C5.24631984 64.21185866 5.43485066 67.94720919 5.62231445 71.68261719 C6.32774598 85.66417655 7.15342258 99.61563654 8.320755 113.5667572 C8.94365713 121.0649983 9.38825699 128.54097737 9.625 136.0625 C9.66367187 137.14208984 9.70234375 138.22167969 9.7421875 139.33398438 C9.83303956 141.88919859 9.91914285 144.44445383 10 147 C9.2064209 147.0093457 8.4128418 147.01869141 7.59521484 147.02832031 C-15.09110947 147.3621834 -36.48610349 149.30673954 -58 157 C-59.18078125 157.40605469 -60.3615625 157.81210937 -61.578125 158.23046875 C-82.17960759 165.83339685 -99.6865328 178.40773229 -116.1875 192.6171875 C-118.41061986 194.50066404 -120.6436787 196.28940137 -123 198 C-124.5031232 187.19421433 -124.5031232 187.19421433 -121.30078125 182.51953125 C-118.65770816 180.12110624 -115.91250328 178.06392208 -113 176 C-111.83792618 175.11096358 -110.67919885 174.21753991 -109.5234375 173.3203125 C-80.86472274 151.34518801 -45.69674989 135.90297123 -9.1796875 135.98828125 C-8.14122681 135.98955017 -8.14122681 135.98955017 -7.08178711 135.99084473 C-5.38785674 135.99303704 -3.69392796 135.9963993 -2 136 C-2.00523682 135.01499512 -2.01047363 134.02999023 -2.01586914 133.01513672 C-2.14450762 105.84473608 -1.92726745 78.68052842 -1.59428024 51.51248932 C-1.56259631 48.88299315 -1.53255906 46.2534828 -1.50296021 43.6239624 C-1.45527504 39.41568041 -1.40293788 35.20747988 -1.34712219 30.9992981 C-1.32698013 29.43722247 -1.30819479 27.87512864 -1.29090881 26.3130188 C-1.19181883 17.50500718 -0.89235837 8.77117383 0 0 Z " fill="#F2DD2E" transform="translate(409,128)"/>
<path d="M0 0 C0.33 0 0.66 0 1 0 C1.74173609 11.20148511 2.18524525 22.3654527 2.31640625 33.58984375 C2.33717139 35.13450482 2.3582156 36.67916215 2.3795166 38.22381592 C2.43446129 42.29368679 2.48419298 46.36360412 2.53242874 50.43355942 C2.56265788 52.95064654 2.59442602 55.46770977 2.62667847 57.98477173 C2.95041836 83.32349639 3.15088052 108.65903578 3 134 C3.89460937 133.98694824 4.78921875 133.97389648 5.7109375 133.96044922 C12.90697502 133.90003472 19.88225618 134.05292527 27 135.125 C27.88099365 135.25696777 28.7619873 135.38893555 29.66967773 135.52490234 C47.54029263 138.39468221 63.82086767 143.96606519 80 152 C81.03253906 152.50273437 82.06507813 153.00546875 83.12890625 153.5234375 C94.4139013 159.34252586 105.17642065 167.0886971 114.87109375 175.2578125 C116.94232836 177.02464465 116.94232836 177.02464465 119.16015625 178.3671875 C121.30482744 179.80833832 122.61880436 180.8052846 124 183 C124.57370718 187.39491281 124.41167242 191.59575855 124 196 C123.57952393 195.63865967 123.15904785 195.27731934 122.72583008 194.9050293 C120.81885171 193.26810749 118.90949094 191.63398994 117 190 C116.11513916 189.23937256 116.11513916 189.23937256 115.21240234 188.46337891 C83.56447857 161.42548224 46.46132903 146.68587534 4.9375 145.4375 C3.58136984 145.39420372 2.22524989 145.35058634 0.86914062 145.30664062 C-2.42048671 145.2012789 -5.71018059 145.09915048 -9 145 C-8.50922194 130.65571432 -7.83476541 116.32787147 -7 102 C-6.95820618 101.26952454 -6.91641235 100.53904907 -6.87335205 99.78643799 C-6.4805779 92.95562494 -6.06293976 86.14894256 -5.24121094 79.35449219 C-4.7266225 74.3315257 -4.51573403 69.28259486 -4.24090576 64.24188232 C-3.42151459 49.27666691 -2.42923729 34.32535003 -1.375 19.375 C-1.30669983 18.40596741 -1.23839966 17.43693481 -1.16802979 16.4385376 C-0.78124005 10.95884164 -0.39177411 5.47934176 0 0 Z " fill="#E76823" transform="translate(148,130)"/>
<path d="M0 0 C0.33 0.66 0.66 1.32 1 2 C1.66 2 2.32 2 3 2 C4.55495698 5.10991396 4.24076956 8.43344049 4.31640625 11.8515625 C4.33718735 12.62559418 4.35796844 13.39962585 4.37937927 14.19711304 C4.44483448 16.67298392 4.50374087 19.14896202 4.5625 21.625 C4.60568907 23.30209448 4.64930348 24.97917807 4.69335938 26.65625 C4.80051171 30.77072308 4.90179045 34.88530414 5 39 C3.02 39.99 1.04 40.98 -1 42 C2.96 41.01 6.92 40.02 11 39 C9.79150238 45.49647399 7.99139977 50.72477707 4.8125 56.5 C4.41321289 57.23831055 4.01392578 57.97662109 3.60253906 58.73730469 C-2.73681431 70.21694779 -11.6079262 81.76779106 -24 87 C-24.99 87 -25.98 87 -27 87 C-27.29716395 80.94941181 -26.23354557 75.66639629 -24.75 69.8125 C-24.49549072 68.8016333 -24.24098145 67.7907666 -23.97875977 66.74926758 C-21.36385067 56.76687977 -18.18980132 46.97728707 -14.9375 37.1875 C-14.68246704 36.41532135 -14.42743408 35.6431427 -14.16467285 34.8475647 C-11.2255297 25.98572057 -8.05418146 17.42556921 -4 9 C-3.22386915 7.27320462 -2.45232479 5.54433268 -1.6875 3.8125 C-1.36136719 3.07644531 -1.03523438 2.34039062 -0.69921875 1.58203125 C-0.46847656 1.05996094 -0.23773438 0.53789062 0 0 Z " fill="#F19525" transform="translate(316,167)"/>
<path d="M0 0 C0.66 0.33 1.32 0.66 2 1 C2 1.66 2 2.32 2 3 C2.15899529 5.20889891 2.3268366 7.4171666 2.5 9.625 C2.5928125 10.81351563 2.685625 12.00203125 2.78125 13.2265625 C2.8534375 14.14179688 2.925625 15.05703125 3 16 C3.99 16.33 4.98 16.66 6 17 C6 19.31 6 21.62 6 24 C6.66 24.33 7.32 24.66 8 25 C7.505 25.37125 7.01 25.7425 6.5 26.125 C4.70105508 27.94615888 4.70105508 27.94615888 5.1484375 30.65234375 C4.95809856 34.94498764 3.23163847 37.81474329 1.125 41.4375 C-2.81393427 48.5212093 -6.22637398 55.74632159 -9.4375 63.1875 C-9.86208496 64.16710693 -10.28666992 65.14671387 -10.72412109 66.15600586 C-12.67824149 70.71943315 -14.53879948 75.24910212 -16 80 C-16.33 79.34 -16.66 78.68 -17 78 C-18.32 78 -19.64 78 -21 78 C-21.55253467 65.08744107 -22.09676419 52.17611786 -22.125 39.25 C-22.12951172 38.41315674 -22.13402344 37.57631348 -22.13867188 36.71411133 C-22.10595361 23.39096315 -22.10595361 23.39096315 -17 18.1875 C-16.19304687 17.34445313 -15.38609375 16.50140625 -14.5546875 15.6328125 C-13.29011719 14.32957031 -13.29011719 14.32957031 -12 13 C-10.3678726 11.19391545 -8.74258524 9.38162045 -7.125 7.5625 C-4.80765554 4.97521398 -2.48348612 2.42881818 0 0 Z " fill="#F09024" transform="translate(314,125)"/>
<path d="M0 0 C-0.48859497 0.73597412 -0.48859497 0.73597412 -0.98706055 1.48681641 C-13.0735381 19.74829706 -24.51744628 38.24284631 -34 58 C-35.32490895 60.67096944 -36.66193419 63.33558012 -38 66 C-40.31 66 -42.62 66 -45 66 C-45.07410115 60.21593031 -45.12857885 54.43213629 -45.16479492 48.64770508 C-45.17989082 46.67955717 -45.20036948 44.71144294 -45.22631836 42.7434082 C-45.26266649 39.91609388 -45.27971814 37.0892239 -45.29296875 34.26171875 C-45.30845261 33.38037766 -45.32393646 32.49903656 -45.33988953 31.59098816 C-45.34011612 30.77036392 -45.34034271 29.94973969 -45.34057617 29.10424805 C-45.34723801 28.38254929 -45.35389984 27.66085052 -45.36076355 26.9172821 C-44.89329274 24.43290301 -43.97394929 23.5305568 -42 22 C-41.34 22 -40.68 22 -40 22 C-39.80148437 21.08863281 -39.60296875 20.17726563 -39.3984375 19.23828125 C-37.6471358 15.18289267 -35.43731221 14.00503223 -31.625 12.1875 C-30.97885742 11.86273682 -30.33271484 11.53797363 -29.66699219 11.20336914 C-27.45700054 10.10796619 -25.23108058 9.0517558 -23 8 C-22.13665039 7.58685547 -21.27330078 7.17371094 -20.38378906 6.74804688 C-17.68014087 5.46078027 -14.96787575 4.19442513 -12.25 2.9375 C-11.38068848 2.53104248 -10.51137695 2.12458496 -9.61572266 1.70581055 C-8.79894043 1.3375415 -7.9821582 0.96927246 -7.140625 0.58984375 C-6.05056152 0.09278931 -6.05056152 0.09278931 -4.93847656 -0.41430664 C-3 -1 -3 -1 0 0 Z " fill="#F3C92B" transform="translate(389,81)"/>
<path d="M0 0 C0 0.66 0 1.32 0 2 C-0.98742187 2.13277344 -1.97484375 2.26554687 -2.9921875 2.40234375 C-4.27351563 2.57894531 -5.55484375 2.75554687 -6.875 2.9375 C-8.78925781 3.19853516 -8.78925781 3.19853516 -10.7421875 3.46484375 C-13.87559454 3.81433227 -13.87559454 3.81433227 -16 5 C-16.33 5.99 -16.66 6.98 -17 8 C-16.0409375 8.2165625 -16.0409375 8.2165625 -15.0625 8.4375 C-13 9 -13 9 -12 10 C-10.65252916 10.23075082 -9.29622435 10.41153063 -7.9375 10.5625 C-6.638125 10.706875 -5.33875 10.85125 -4 11 C-4 11.33 -4 11.66 -4 12 C-4.71800781 12.08636719 -5.43601562 12.17273438 -6.17578125 12.26171875 C-40.94408532 16.98120212 -69.84844111 32.93586992 -96.1875 55.6171875 C-98.41061986 57.50066404 -100.6436787 59.28940137 -103 61 C-104.5031232 50.19421433 -104.5031232 50.19421433 -101.30078125 45.51953125 C-98.65770816 43.12110624 -95.91250328 41.06392208 -93 39 C-91.83792618 38.11096358 -90.67919885 37.21753991 -89.5234375 36.3203125 C-68.01274754 19.82619915 -44.34859263 8.67778023 -18.0625 2.1875 C-17.18609863 1.96803711 -16.30969727 1.74857422 -15.40673828 1.52246094 C-10.13298951 0.27672521 -5.41775205 -0.21972343 0 0 Z " fill="#F09223" transform="translate(389,265)"/>
<path d="M0 0 C14.26108358 0.76398662 27.41988701 6.65289084 40 13 C40.93070313 13.46019531 41.86140625 13.92039062 42.8203125 14.39453125 C54.22120243 20.29917126 65.06306832 27.99318194 74.87109375 36.2578125 C76.94232836 38.02464465 76.94232836 38.02464465 79.16015625 39.3671875 C81.30482744 40.80833832 82.61880436 41.8052846 84 44 C84.57370718 48.39491281 84.41167242 52.59575855 84 57 C83.57952393 56.63865967 83.15904785 56.27731934 82.72583008 55.9050293 C80.81885171 54.26810749 78.90949094 52.63398994 77 51 C76.41009277 50.49291504 75.82018555 49.98583008 75.21240234 49.46337891 C54.66806749 31.91165555 28.99155058 15.88466494 2 11 C2 10.34 2 9.68 2 9 C1.01 8.67 0.02 8.34 -1 8 C-0.34 8 0.32 8 1 8 C0.67 5.36 0.34 2.72 0 0 Z " fill="#F0AE26" transform="translate(188,269)"/>
<path d="M0 0 C38.97196926 -1.48621917 79.65432472 12.60633382 108.5625 38.6875 C113.01838631 42.82184117 117.08606821 47.18381597 120.875 51.9375 C121.31013916 52.46883545 121.74527832 53.0001709 122.19360352 53.54760742 C124.09512987 56.04645119 124.99880138 57.57748769 125.0078125 60.75390625 C124 63 124 63 121.9375 64.3125 C121.298125 64.539375 120.65875 64.76625 120 65 C119.21496094 64.07058594 118.42992187 63.14117187 117.62109375 62.18359375 C86.66254976 25.67117287 46.54308352 9.09031104 0 1 C0 0.67 0 0.34 0 0 Z " fill="#EFBF27" transform="translate(149,107)"/>
<path d="M0 0 C1.73169596 3.1622274 2.7128976 6.26742722 3.625 9.75 C3.88539063 10.73484375 4.14578125 11.7196875 4.4140625 12.734375 C4.60742188 13.48203125 4.80078125 14.2296875 5 15 C5.33 15 5.66 15 6 15 C6.33872513 16.41538717 6.67074624 17.83237963 7 19.25 C7.185625 20.03890625 7.37125 20.8278125 7.5625 21.640625 C8 24 8 24 8 28 C7.34 28 6.68 28 6 28 C6.01047363 28.91813477 6.02094727 29.83626953 6.03173828 30.78222656 C6.06587215 34.19647746 6.0909241 37.61054638 6.10986328 41.02490234 C6.11990591 42.50116847 6.13354265 43.97741479 6.15087891 45.45361328 C6.17520421 47.57850034 6.1865004 49.70312385 6.1953125 51.828125 C6.20578613 53.1059082 6.21625977 54.38369141 6.22705078 55.70019531 C6.01550278 58.77469299 5.63126908 60.43738352 4 63 C1.30892159 59.77385336 -0.13698222 56.54131673 -1.625 52.625 C-2.05039062 51.52414063 -2.47578125 50.42328125 -2.9140625 49.2890625 C-7.72528679 34.71693713 -6.92568632 13.85137264 0 0 Z " fill="#E86823" transform="translate(268,189)"/>
<path d="M0 0 C2 1 2 1 4 4 C3.67 4.66 3.34 5.32 3 6 C3.66 6 4.32 6 5 6 C5 6.66 5 7.32 5 8 C5.66 8.33 6.32 8.66 7 9 C6.12859375 9.47308594 5.2571875 9.94617188 4.359375 10.43359375 C-7.90490327 17.19776023 -18.59382701 25.49805505 -29.1875 34.6171875 C-31.41061986 36.50066404 -33.6436787 38.28940137 -36 40 C-37.5031232 29.19421433 -37.5031232 29.19421433 -34.30078125 24.51953125 C-31.6568185 22.12029894 -28.91505592 20.06274227 -26 18 C-24.7914378 17.08707174 -23.58583303 16.17021856 -22.3828125 15.25 C-6.75073361 3.40714992 -6.75073361 3.40714992 0 0 Z " fill="#EA6F23" transform="translate(322,286)"/>
<path d="M0 0 C5.17279457 0.47025405 8.57998766 3.1411817 12.6875 6.0625 C13.39575928 6.55838623 14.10401855 7.05427246 14.83374023 7.56518555 C19.64745399 10.96390768 24.36288709 14.45901907 28.87109375 18.2578125 C30.94232836 20.02464465 30.94232836 20.02464465 33.16015625 21.3671875 C35.30482744 22.80833832 36.61880436 23.8052846 38 26 C38.57370718 30.39491281 38.41167242 34.59575855 38 39 C37.58097412 38.63938477 37.16194824 38.27876953 36.73022461 37.90722656 C26.25078577 28.90456109 15.95814288 20.11127069 3.96508789 13.15917969 C-0.90160381 10.29518857 -0.90160381 10.29518857 -2 7 C-2.66 6.67 -3.32 6.34 -4 6 C-3.525625 5.566875 -3.05125 5.13375 -2.5625 4.6875 C-0.76313043 2.97690387 -0.76313043 2.97690387 0 0 Z " fill="#F0D82E" transform="translate(234,287)"/>
<path d="M0 0 C-0.66 0.66 -1.32 1.32 -2 2 C-1.505 3.485 -1.505 3.485 -1 5 C-1.32380126 6.33568021 -1.65657551 7.66923011 -2 9 C-1.505 9.99 -1.505 9.99 -1 11 C-7.29157773 10.47106205 -13.46393398 9.62147559 -19.68359375 8.54296875 C-25.76815454 7.54679213 -31.88511398 6.78524493 -38 6 C-38 4.35 -38 2.7 -38 1 C-38.66 1 -39.32 1 -40 1 C-40 0.01 -40 -0.98 -40 -2 C-29.606369 -7.1968155 -10.82744975 -2.60603375 0 0 Z " fill="#ED8C24" transform="translate(191,268)"/>
<path d="M0 0 C0.495 0.99 0.495 0.99 1 2 C0.12304688 4.08447266 0.12304688 4.08447266 -1.28125 6.6640625 C-1.79018799 7.61321533 -2.29912598 8.56236816 -2.82348633 9.5402832 C-3.37673584 10.55823975 -3.92998535 11.57619629 -4.5 12.625 C-9.45365267 21.93205865 -14.03296808 31.23481078 -18 41 C-18.28149902 41.68271973 -18.56299805 42.36543945 -18.85302734 43.06884766 C-27.10973841 63.18912466 -32.98630111 83.85950619 -38 105 C-38.33 104.34 -38.66 103.68 -39 103 C-39.66 103 -40.32 103 -41 103 C-41 103.66 -41 104.32 -41 105 C-41.66 105 -42.32 105 -43 105 C-37.60618428 69.52315023 -21.40558491 28.97585274 0 0 Z " fill="#150C0A" transform="translate(328,142)"/>
<path d="M0 0 C3.53571581 -0.48302128 4.79647585 -0.14364717 7.76171875 1.94921875 C8.75204813 2.84560716 9.72663125 3.75960146 10.6875 4.6875 C11.45936646 5.41767334 11.45936646 5.41767334 12.24682617 6.16259766 C16.0370801 9.8462889 19.51551277 13.74589052 22.8125 17.875 C23.25102295 18.40955811 23.6895459 18.94411621 24.14135742 19.49487305 C26.06064138 22.00918619 26.99811627 23.55669662 27.01171875 26.7578125 C26 29 26 29 23.9375 30.3125 C23.298125 30.539375 22.65875 30.76625 22 31 C21.21496094 30.07058594 20.42992187 29.14117187 19.62109375 28.18359375 C12.21930467 19.4575719 4.79050555 11.35532097 -4 4 C-3.67 3.34 -3.34 2.68 -3 2 C-2.01 2 -1.02 2 0 2 C0 1.34 0 0.68 0 0 Z " fill="#F2D82D" transform="translate(247,141)"/>
<path d="M0 0 C0 0.66 0 1.32 0 2 C-0.98742187 2.13277344 -1.97484375 2.26554687 -2.9921875 2.40234375 C-4.27351563 2.57894531 -5.55484375 2.75554687 -6.875 2.9375 C-8.78925781 3.19853516 -8.78925781 3.19853516 -10.7421875 3.46484375 C-13.87559454 3.81433227 -13.87559454 3.81433227 -16 5 C-16.33 5.99 -16.66 6.98 -17 8 C-16.0409375 8.2165625 -16.0409375 8.2165625 -15.0625 8.4375 C-13 9 -13 9 -12 10 C-10.65252916 10.23075082 -9.29622435 10.41153063 -7.9375 10.5625 C-6.638125 10.706875 -5.33875 10.85125 -4 11 C-4 11.33 -4 11.66 -4 12 C-4.7528125 12.09796875 -5.505625 12.1959375 -6.28125 12.296875 C-13.56478366 13.32222683 -20.5402121 14.77199775 -27.6171875 16.76660156 C-31.05767432 17.6956709 -33.61539253 18.35212054 -37 17 C-36.67 15.68 -36.34 14.36 -36 13 C-36.66 12.67 -37.32 12.34 -38 12 C-37.01 12 -36.02 12 -35 12 C-35.33 10.35 -35.66 8.7 -36 7 C-33.02140954 6.20611322 -30.04216284 5.41484361 -27.0625 4.625 C-26.23169922 4.40328125 -25.40089844 4.1815625 -24.54492188 3.953125 C-8.44395532 -0.30705292 -8.44395532 -0.30705292 0 0 Z " fill="#E9AD28" transform="translate(389,265)"/>
<path d="M0 0 C-0.33 1.98 -0.66 3.96 -1 6 C-2.32 6.33 -3.64 6.66 -5 7 C-5.33 20.53 -5.66 34.06 -6 48 C-4.02 48 -2.04 48 0 48 C-1.27063508 52.96702804 -3.04342689 55.71893937 -7 59 C-7.99 59 -8.98 59 -10 59 C-9.67 42.83 -9.34 26.66 -9 10 C-9.99 10.33 -10.98 10.66 -12 11 C-12.66 10.67 -13.32 10.34 -14 10 C-14 9.34 -14 8.68 -14 8 C-12.09625645 6.55036041 -10.12532841 5.18815677 -8.125 3.875 C-6.48917969 2.78832031 -6.48917969 2.78832031 -4.8203125 1.6796875 C-2 0 -2 0 0 0 Z " fill="#F5B729" transform="translate(350,99)"/>
<path d="M0 0 C21.85717691 -0.83353641 43.2489007 4.76195804 64 11 C60.54652909 14.17719324 57.65247895 14.81487518 53 15 C50.29558108 14.24036385 47.8925501 13.42642818 45.3125 12.375 C30.6694927 6.82321811 15.40310789 3.64606462 0 1 C0 0.67 0 0.34 0 0 Z " fill="#E79729" transform="translate(149,107)"/>
<path d="M0 0 C0.70189453 0.00451172 1.40378906 0.00902344 2.12695312 0.01367188 C3.85550538 0.02543073 5.58401365 0.04336546 7.3125 0.0625 C4.30632731 3.06867269 1.48868402 2.65835316 -2.6875 3.0625 C-3.0175 5.0425 -3.3475 7.0225 -3.6875 9.0625 C-2.3675 9.3925 -1.0475 9.7225 0.3125 10.0625 C-8.4659452 12.10654545 -16.72648756 12.28017642 -25.6875 12.0625 C-25.3575 11.4025 -25.0275 10.7425 -24.6875 10.0625 C-25.6775 9.7325 -26.6675 9.4025 -27.6875 9.0625 C-27.3575 7.7425 -27.0275 6.4225 -26.6875 5.0625 C-21.23288831 3.67720179 -16.32031599 2.8228057 -10.6875 3.0625 C-10.6875 2.4025 -10.6875 1.7425 -10.6875 1.0625 C-7.06882441 -0.1437252 -3.76243749 -0.04566918 0 0 Z " fill="#F4CA2B" transform="translate(399.6875,263.9375)"/>
<path d="M0 0 C2 1 2 1 4 4 C3.67 4.66 3.34 5.32 3 6 C3.66 6 4.32 6 5 6 C5 6.66 5 7.32 5 8 C5.66 8.33 6.32 8.66 7 9 C0 13 -7 17 -14 21 C-14.66666667 17.66666667 -15.33333333 14.33333333 -16 11 C-14.27278316 9.72651788 -12.54313762 8.45632943 -10.8125 7.1875 C-9.84957031 6.47980469 -8.88664062 5.77210938 -7.89453125 5.04296875 C-5.30857667 3.21779433 -2.80897441 1.46027858 0 0 Z " fill="#ED8122" transform="translate(322,286)"/>
<path d="M0 0 C8.79246214 0.47102476 16.70615203 3.24216834 25 6 C23.68 6.33 22.36 6.66 21 7 C21 7.66 21 8.32 21 9 C20.01 9 19.02 9 18 9 C18.19471111 10.94999129 18.19471111 10.94999129 19 13 C20.9837767 14.28436734 20.9837767 14.28436734 23 15 C22.67 15.66 22.34 16.32 22 17 C20.46279297 16.47599609 20.46279297 16.47599609 18.89453125 15.94140625 C17.53390863 15.48160964 16.17322849 15.0219832 14.8125 14.5625 C14.13896484 14.33240234 13.46542969 14.10230469 12.77148438 13.86523438 C9.20485509 12.66475915 5.7128839 11.62722505 2 11 C2 10.34 2 9.68 2 9 C1.01 8.67 0.02 8.34 -1 8 C-0.34 8 0.32 8 1 8 C0.67 5.36 0.34 2.72 0 0 Z " fill="#EE9E25" transform="translate(188,269)"/>
<path d="M0 0 C0.33 0 0.66 0 1 0 C1.87192861 12.2040515 2.12653137 24.33009146 2.0625 36.5625 C2.05746548 38.26757678 2.05290609 39.97265504 2.04882812 41.67773438 C2.03799884 45.78519378 2.02084659 49.89257973 2 54 C1.67 54 1.34 54 1 54 C0.67 58.62 0.34 63.24 0 68 C-0.66 68 -1.32 68 -2 68 C-2.33 69.65 -2.66 71.3 -3 73 C-3.33 73 -3.66 73 -4 73 C-4.40197898 57.58103528 -3.16016198 42.30283317 -2 26.9375 C-1.80672496 24.31709903 -1.61401229 21.69665652 -1.421875 19.07617188 C-0.95439537 12.71695471 -0.47999065 6.35828445 0 0 Z " fill="#BE5B20" transform="translate(148,130)"/>
<path d="M0 0 C2.4295903 2.4295903 2.23446257 3.69388913 2.24884033 7.00843811 C2.24164978 7.70255295 2.23445923 8.39666779 2.22705078 9.11181641 C2.22734283 9.84362625 2.22763489 10.5754361 2.22793579 11.329422 C2.22654001 13.75358854 2.2109674 16.17744951 2.1953125 18.6015625 C2.19158325 20.28022087 2.18873586 21.95888141 2.18673706 23.63754272 C2.17909369 28.05991607 2.15943922 32.48215845 2.1373291 36.90447998 C2.11688579 41.41546863 2.10773859 45.9264784 2.09765625 50.4375 C2.07619394 59.29172427 2.04204955 68.14585125 2 77 C1.67 77 1.34 77 1 77 C0.12474592 65.48256417 -0.12637259 54.04768296 -0.0625 42.5 C-0.05746561 40.88672017 -0.05290619 39.27343878 -0.04882812 37.66015625 C-0.0379976 33.77339786 -0.0208446 29.88671705 0 26 C-1.32 26.99 -2.64 27.98 -4 29 C-4.12525667 21.60985626 -4.12525667 21.60985626 -3.5234375 18.6796875 C-2.6474029 14.19491337 -2.603176 9.63900164 -2.37890625 5.08203125 C-2 2 -2 2 0 0 Z " fill="#F36E1E" transform="translate(148,182)"/>
<path d="M0 0 C3.99012371 0.55989303 6.5255052 1.75669768 9.8125 4.0625 C10.60269531 4.61035156 11.39289063 5.15820312 12.20703125 5.72265625 C12.79871094 6.14417969 13.39039063 6.56570313 14 7 C13.34 7.66 12.68 8.32 12 9 C11.54188325 10.97235333 11.54188325 10.97235333 11.375 13.125 C11.25125 14.40375 11.1275 15.6825 11 17 C9.58124235 16.23302204 8.16508548 15.46123222 6.75 14.6875 C5.96109375 14.25824219 5.1721875 13.82898438 4.359375 13.38671875 C2.08545233 12.05022446 0.00494201 10.71523708 -2 9 C-2 8.34 -2 7.68 -2 7 C-2.66 6.67 -3.32 6.34 -4 6 C-3.525625 5.566875 -3.05125 5.13375 -2.5625 4.6875 C-0.76313043 2.97690387 -0.76313043 2.97690387 0 0 Z " fill="#F2C82C" transform="translate(234,287)"/>
<path d="M0 0 C6.36835178 0.12877182 14.1067297 2.9192297 18.625 7.4375 C16.645 8.4275 14.665 9.4175 12.625 10.4375 C14.605 11.4275 16.585 12.4175 18.625 13.4375 C18.625 14.0975 18.625 14.7575 18.625 15.4375 C14.10993002 13.72885587 9.81931823 11.64392389 5.5 9.5 C4.78457031 9.15259766 4.06914062 8.80519531 3.33203125 8.44726562 C2.64238281 8.10501953 1.95273438 7.76277344 1.2421875 7.41015625 C0.61940918 7.10343994 -0.00336914 6.79672363 -0.64501953 6.48071289 C-2.52718032 5.34573221 -3.88685318 4.04571386 -5.375 2.4375 C-3.375 0.4375 -3.375 0.4375 0 0 Z " fill="#EEAC24" transform="translate(209.375,118.5625)"/>
<path d="M0 0 C5.28 0 10.56 0 16 0 C16 0.33 16 0.66 16 1 C18.31 1.33 20.62 1.66 23 2 C23 2.33 23 2.66 23 3 C20.69 3 18.38 3 16 3 C16.71563266 5.0162233 16.71563266 5.0162233 18 7 C20.05000871 7.80528889 20.05000871 7.80528889 22 8 C22 8.33 22 8.66 22 9 C15.2314676 9.10152799 8.69675136 9.03026944 2 8 C2 6.35 2 4.7 2 3 C1.34 3 0.68 3 0 3 C0 2.01 0 1.02 0 0 Z " fill="#F47A1F" transform="translate(151,266)"/>
<path d="M0 0 C-0.33 0.53625 -0.66 1.0725 -1 1.625 C-2.22699204 4.5391061 -2.14233286 6.86867708 -2 10 C-3.24663331 10.50833591 -4.49749387 11.00631145 -5.75 11.5 C-6.44609375 11.7784375 -7.1421875 12.056875 -7.859375 12.34375 C-10 13 -10 13 -14 13 C-14.48598131 5.71028037 -14.48598131 5.71028037 -12.375 2.625 C-8.38044197 -0.10811866 -4.71379067 -1.81299641 0 0 Z " fill="#F2A125" transform="translate(355,274)"/>
<path d="M0 0 C0.33 0 0.66 0 1 0 C3.18137854 34.69566704 3.18137854 34.69566704 4 49 C3.67 49 3.34 49 3 49 C3 46.69 3 44.38 3 42 C2.34 42 1.68 42 1 42 C0.67 45.3 0.34 48.6 0 52 C-0.33 52 -0.66 52 -1 52 C-1.02496476 46.52311525 -1.04298372 41.04626459 -1.05493164 35.56933594 C-1.05991956 33.71125714 -1.06671228 31.85318218 -1.07543945 29.99511719 C-1.12139202 19.9504266 -1.14210679 9.99697537 0 0 Z " fill="#C0B12C" transform="translate(409,128)"/>
<path d="M0 0 C4.85963179 0.60745397 8.7405518 2.72758967 13 5 C12.01 5.495 12.01 5.495 11 6 C10.34786708 8.02463255 10.34786708 8.02463255 10 10 C9.34 10 8.68 10 8 10 C8.33 11.65 8.66 13.3 9 15 C7.51356155 14.43545368 6.03593984 13.84765111 4.5625 13.25 C3.73878906 12.92515625 2.91507813 12.6003125 2.06640625 12.265625 C0 11 0 11 -0.8125 9.09375 C-1.09170822 5.97592491 -0.53130904 3.06978559 0 0 Z " fill="#ECBA27" transform="translate(223,281)"/>
<path d="M0 0 C13.46373109 -0.51344737 26.74911883 1.86715269 40 4 C33.88906926 8.07395382 33.88906926 8.07395382 30.59326172 7.79980469 C29.71428223 7.59258789 28.83530273 7.38537109 27.9296875 7.171875 C26.95 6.94886719 25.9703125 6.72585937 24.9609375 6.49609375 C23.94257813 6.24988281 22.92421875 6.00367187 21.875 5.75 C19.87257012 5.28570602 17.86996706 4.82215827 15.8671875 4.359375 C14.89362305 4.13056641 13.92005859 3.90175781 12.91699219 3.66601562 C8.62892793 2.68695308 4.31877194 1.83158698 0 1 C0 0.67 0 0.34 0 0 Z " fill="#E0842A" transform="translate(149,107)"/>
<path d="M0 0 C0 0.66 0 1.32 0 2 C-1.26972656 2.18175781 -2.53945313 2.36351563 -3.84765625 2.55078125 C-14.30587982 4.07058742 -24.66378706 5.79180905 -35 8 C-34.34 6.35 -33.68 4.7 -33 3 C-29.18870032 2.49056215 -25.37580386 1.9941935 -21.5625 1.5 C-20.49322266 1.35691406 -19.42394531 1.21382813 -18.32226562 1.06640625 C-12.15456951 0.2742251 -6.2177959 -0.15691598 0 0 Z " fill="#C8992C" transform="translate(408,107)"/>
<path d="M0 0 C0.66 0.33 1.32 0.66 2 1 C1.29843593 8.15595346 -0.30785021 15.01855181 -2 22 C-2.33 21.34 -2.66 20.68 -3 20 C-3.66 20 -4.32 20 -5 20 C-5 20.66 -5 21.32 -5 22 C-5.66 22 -6.32 22 -7 22 C-5.98589015 14.4955871 -4.51277947 6.23193355 0 0 Z " fill="#100708" transform="translate(292,225)"/>
<path d="M0 0 C0.33 0 0.66 0 1 0 C1 16.5 1 33 1 50 C0.67 50 0.34 50 0 50 C-0.33 47.69 -0.66 45.38 -1 43 C-1.33 43 -1.66 43 -2 43 C-2.14826314 33.35157033 -1.69493129 23.80810082 -1 14.1875 C-0.90323541 12.80146088 -0.80687919 11.4153932 -0.7109375 10.02929688 C-0.47794791 6.68589633 -0.24090218 3.34283812 0 0 Z " fill="#DF6A27" transform="translate(148,130)"/>
<path d="M0 0 C0.99 0.66 1.98 1.32 3 2 C2.7155186 4.20927044 2.4220904 6.41738979 2.125 8.625 C1.96257812 9.85476563 1.80015625 11.08453125 1.6328125 12.3515625 C1.04516311 15.73961517 0.18011878 18.77698651 -1 22 C-2.32 22 -3.64 22 -5 22 C-4.85769192 20.58297487 -4.71099254 19.1663904 -4.5625 17.75 C-4.48128906 16.96109375 -4.40007812 16.1721875 -4.31640625 15.359375 C-3.77777632 11.34292468 -2.80195739 7.55674082 -0.9375 3.9375 C0.14518698 2.05867974 0.14518698 2.05867974 0 0 Z " fill="#EF7226" transform="translate(280,253)"/>
<path d="M0 0 C1.2065625 0.0309375 1.2065625 0.0309375 2.4375 0.0625 C2.7675 1.0525 3.0975 2.0425 3.4375 3.0625 C2.7775 3.0625 2.1175 3.0625 1.4375 3.0625 C1.4375 4.3825 1.4375 5.7025 1.4375 7.0625 C2.0975 7.3925 2.7575 7.7225 3.4375 8.0625 C1.1275 10.0425 -1.1825 12.0225 -3.5625 14.0625 C-3.58935938 11.91673363 -3.60883088 9.77087355 -3.625 7.625 C-3.63660156 6.43003906 -3.64820313 5.23507812 -3.66015625 4.00390625 C-3.53008299 0.08609959 -3.53008299 0.08609959 0 0 Z " fill="#DB6126" transform="translate(289.5625,311.9375)"/>
<path d="M0 0 C0.33 0 0.66 0 1 0 C1.66 3.3 2.32 6.6 3 10 C3.99 10 4.98 10 6 10 C6 9.34 6 8.68 6 8 C7.32 8.66 8.64 9.32 10 10 C8.56705502 10.84114171 7.12845595 11.67265687 5.6875 12.5 C4.88699219 12.9640625 4.08648437 13.428125 3.26171875 13.90625 C1 15 1 15 -2 15 C-2.22577402 9.5814234 -1.46670113 5.22512279 0 0 Z " fill="#DE7C21" transform="translate(291,239)"/>
<path d="M0 0 C0.33 0.66 0.66 1.32 1 2 C0.04370117 4.29077148 0.04370117 4.29077148 -1.45703125 7.12109375 C-1.99263672 8.13880859 -2.52824219 9.15652344 -3.08007812 10.20507812 C-3.65177734 11.27177734 -4.22347656 12.33847656 -4.8125 13.4375 C-5.37259766 14.50033203 -5.93269531 15.56316406 -6.50976562 16.65820312 C-10.640625 24.4609375 -10.640625 24.4609375 -13 28 C-13.72265625 26.44921875 -13.72265625 26.44921875 -14 24 C-12.91196124 21.46714012 -11.78894075 19.19685311 -10.4375 16.8125 C-10.07269531 16.14919678 -9.70789063 15.48589355 -9.33203125 14.80249023 C-6.48433467 9.69020279 -3.40627403 4.76104211 0 0 Z " fill="#1C100A" transform="translate(328,142)"/>
<path d="M0 0 C-2.95070119 1.96713413 -4.53581611 2.65358161 -8 3 C-8.99 2.34 -9.98 1.68 -11 1 C-13.34923778 0.63731066 -15.66781915 0.49722853 -18.0390625 0.34375 C-18.68617188 0.2303125 -19.33328125 0.116875 -20 0 C-20.33 -0.66 -20.66 -1.32 -21 -2 C-14.32532311 -4.2248923 -6.52816468 -2.17605489 0 0 Z " fill="#EF931E" transform="translate(204,115)"/>
<path d="M0 0 C2.64 0.33 5.28 0.66 8 1 C8 2.98 8 4.96 8 7 C5.21176345 8.0326802 4.1322726 8.04509293 1.25 7.0625 C0.5075 6.711875 -0.235 6.36125 -1 6 C-0.67 4.02 -0.34 2.04 0 0 Z " fill="#F3B224" transform="translate(360,272)"/>
<path d="M0 0 C3.54164915 -0.0292067 7.08326697 -0.04686814 10.625 -0.0625 C11.62402344 -0.07087891 12.62304688 -0.07925781 13.65234375 -0.08789062 C18.55020275 -0.1041087 23.18656199 -0.04318537 28 1 C25.55968376 3.44031624 24.38700505 3.57483293 21 4 C18.89237945 3.91802229 16.78647374 3.77009081 14.6875 3.5625 C13.08455078 3.40974609 13.08455078 3.40974609 11.44921875 3.25390625 C10.64097656 3.17011719 9.83273438 3.08632813 9 3 C9 2.67 9 2.34 9 2 C6.03 1.67 3.06 1.34 0 1 C0 0.67 0 0.34 0 0 Z " fill="#E7822A" transform="translate(153,265)"/>
<path d="M0 0 C-0.33 2.31 -0.66 4.62 -1 7 C-2.9375 6.6875 -2.9375 6.6875 -5 6 C-5.33 5.01 -5.66 4.02 -6 3 C-9.27773504 3.75150023 -9.27773504 3.75150023 -11 7 C-11.99 7 -12.98 7 -14 7 C-14 6.34 -14 5.68 -14 5 C-9.27598133 0.80087229 -6.32135754 -1.75593265 0 0 Z " fill="#F2701F" transform="translate(302,306)"/>
<path d="M0 0 C0 0.66 0 1.32 0 2 C0.66 2.33 1.32 2.66 2 3 C-5.425 4.485 -5.425 4.485 -13 6 C-12.34 4.35 -11.68 2.7 -11 1 C-7.26513121 0.4254048 -3.78706732 0 0 0 Z " fill="#EA8623" transform="translate(386,109)"/>
<path d="M0 0 C7.72772107 -0.13690844 15.30881404 0.24833087 23 1 C21.74414062 2.50463867 21.74414062 2.50463867 20 4 C17.04493577 3.94385378 14.40300374 3.73171506 11.5 3.3125 C10.34177734 3.17424805 10.34177734 3.17424805 9.16015625 3.03320312 C5.46589712 2.5498122 3.13994666 2.09329777 0 0 Z " fill="#AE5624" transform="translate(149,107)"/>
<path d="M0 0 C-1.56641751 4.30764815 -3.68336156 8.06171464 -6 12 C-6.99 12 -7.98 12 -9 12 C-9 9.69 -9 7.38 -9 5 C-7.35 4.67 -5.7 4.34 -4 4 C-4 3.01 -4 2.02 -4 1 C-2 0 -2 0 0 0 Z " fill="#F3D92C" transform="translate(381,91)"/>
<path d="M0 0 C1.23593891 3.70781672 0.5678132 4.67510253 -0.9375 8.1875 C-1.31777344 9.08855469 -1.69804687 9.98960937 -2.08984375 10.91796875 C-2.39019531 11.60503906 -2.69054687 12.29210937 -3 13 C-3.33 13 -3.66 13 -4 13 C-4 9.7 -4 6.4 -4 3 C-5.32 2.67 -6.64 2.34 -8 2 C-5.36 1.34 -2.72 0.68 0 0 Z " fill="#E39C2D" transform="translate(326,206)"/>
<path d="M0 0 C0.66 0.33 1.32 0.66 2 1 C1.71125 1.639375 1.4225 2.27875 1.125 2.9375 C-0.07612759 6.20723621 -0.77512565 9.40399555 -1.4375 12.81640625 C-2.02174499 15.08441284 -2.88330306 16.94806938 -4 19 C-4.22084624 12.90218999 -4.01167675 7.78357065 -2 2 C-1.34 2 -0.68 2 0 2 C0 1.34 0 0.68 0 0 Z " fill="#E06E1A" transform="translate(278,256)"/>
<path d="M0 0 C1.5625 1.0625 1.5625 1.0625 3 3 C2.6875 6.6875 2.6875 6.6875 2 10 C0.68 10 -0.64 10 -2 10 C-1.85950482 8.52031676 -1.71245174 7.04125484 -1.5625 5.5625 C-1.48128906 4.73878906 -1.40007812 3.91507812 -1.31640625 3.06640625 C-1 1 -1 1 0 0 Z " fill="#F1AE2C" transform="translate(277,265)"/>
<path d="M0 0 C0.763125 0.20625 1.52625 0.4125 2.3125 0.625 C1.3225 1.285 0.3325 1.945 -0.6875 2.625 C-0.0275 4.605 0.6325 6.585 1.3125 8.625 C0.3225 9.12 0.3225 9.12 -0.6875 9.625 C-2.3375 7.975 -3.9875 6.325 -5.6875 4.625 C-5.0275 4.625 -4.3675 4.625 -3.6875 4.625 C-3.3575 3.965 -3.0275 3.305 -2.6875 2.625 C-3.6775 2.295 -4.6675 1.965 -5.6875 1.625 C-2.6875 -0.375 -2.6875 -0.375 0 0 Z " fill="#EEBD2F" transform="translate(237.6875,131.375)"/>
<path d="M0 0 C0 0.66 0 1.32 0 2 C0.66 2 1.32 2 2 2 C2 3.65 2 5.3 2 7 C-1.91211733 5.84414715 -4.8745041 4.64465038 -8 2 C-5.09399739 0.74335022 -3.20395416 0 0 0 Z " fill="#E8A028" transform="translate(213,120)"/>
<path d="M0 0 C0.6875 1.75 0.6875 1.75 1 4 C-0.25 6.25 -0.25 6.25 -2 8 C-2.99 8 -3.98 8 -5 8 C-5.33 9.98 -5.66 11.96 -6 14 C-7.32 13.01 -8.64 12.02 -10 11 C-9.38125 10.7525 -8.7625 10.505 -8.125 10.25 C-5.5600844 8.74122612 -5.21925843 7.66712781 -4 5 C-2.6949419 3.31110128 -1.36639342 1.6396721 0 0 Z " fill="#1D110E" transform="translate(313,235)"/>
<path d="M0 0 C0.33 1.32 0.66 2.64 1 4 C3.64 4 6.28 4 9 4 C9 4.33 9 4.66 9 5 C6.69 5 4.38 5 2 5 C1.34 6.32 0.68 7.64 0 9 C-1.32 9 -2.64 9 -4 9 C-3.35455571 5.51460083 -1.89865603 2.97180943 0 0 Z " fill="#1C110C" transform="translate(373,105)"/>
<path d="M0 0 C1.125 3.75 1.125 3.75 0 6 C0.66 6.33 1.32 6.66 2 7 C1.01 8.98 0.02 10.96 -1 13 C-1.99 12.67 -2.98 12.34 -4 12 C-2.66666667 8 -1.33333333 4 0 0 Z " fill="#26140C" transform="translate(303,189)"/>
<path d="M0 0 C0.33 0 0.66 0 1 0 C1 6.27 1 12.54 1 19 C0.67 19 0.34 19 0 19 C-0.33 16.69 -0.66 14.38 -1 12 C-1.33 12 -1.66 12 -2 12 C-2.17835515 7.45194365 -1.99785435 4.1205746 0 0 Z " fill="#F97125" transform="translate(148,161)"/>
<path d="M0 0 C0.66 0.33 1.32 0.66 2 1 C1.01 5.62 0.02 10.24 -1 15 C-1.99 15 -2.98 15 -4 15 C-3.52396226 12.87429688 -3.04407402 10.74945573 -2.5625 8.625 C-2.29566406 7.44164062 -2.02882813 6.25828125 -1.75390625 5.0390625 C-1 2 -1 2 0 0 Z " fill="#E68626" transform="translate(300,208)"/>
<path d="M0 0 C0.33 1.32 0.66 2.64 1 4 C0.34 4 -0.32 4 -1 4 C-1.33 4.66 -1.66 5.32 -2 6 C-3.65694085 6.37872934 -5.32656552 6.70250054 -7 7 C-9.00744615 7.64389782 -11.00945124 8.30562253 -13 9 C-10.57542028 6.31765765 -7.92489603 4.63143275 -4.8125 2.8125 C-3.91144531 2.28269531 -3.01039063 1.75289062 -2.08203125 1.20703125 C-1.39496094 0.80871094 -0.70789063 0.41039062 0 0 Z " fill="#2E1E10" transform="translate(346,155)"/>
<path d="M0 0 C0.66 0.66 1.32 1.32 2 2 C1.625 5.625 1.625 5.625 1 9 C0.34 9 -0.32 9 -1 9 C-0.67 10.65 -0.34 12.3 0 14 C-0.99 14.33 -1.98 14.66 -3 15 C-2.35812082 9.86496656 -1.31727753 5.0056546 0 0 Z " fill="#DA7E27" transform="translate(295,223)"/>
<path d="M0 0 C1.45047396 2.90094791 0.45356803 4.55972596 -0.4375 7.625 C-0.72496094 8.62789062 -1.01242187 9.63078125 -1.30859375 10.6640625 C-1.53675781 11.43492187 -1.76492188 12.20578125 -2 13 C-3.37579827 10.33788628 -4.37063561 7.93703384 -5 5 C-4.360625 4.731875 -3.72125 4.46375 -3.0625 4.1875 C-0.66868314 3.11332248 -0.66868314 3.11332248 0 0 Z " fill="#D97425" transform="translate(289,228)"/>
<path d="M0 0 C1.65 0 3.3 0 5 0 C4.67 1.98 4.34 3.96 4 6 C3.01 6.33 2.02 6.66 1 7 C0.67 4.69 0.34 2.38 0 0 Z " fill="#5A3A19" transform="translate(274,275)"/>
<path d="M0 0 C0 0.66 0 1.32 0 2 C0.66 2.33 1.32 2.66 2 3 C1.34 3 0.68 3 0 3 C0 5.31 0 7.62 0 10 C-0.66 10 -1.32 10 -2 10 C-1.67 7.69 -1.34 5.38 -1 3 C-3.64 3.33 -6.28 3.66 -9 4 C-7.04565548 0.09131097 -4.13449517 0 0 0 Z " fill="#F2A413" transform="translate(322,209)"/>
<path d="M0 0 C0.99 0.33 1.98 0.66 3 1 C3.33 5.62 3.66 10.24 4 15 C1.81257986 11.7188698 1.45557194 9.66915644 0.875 5.8125 C0.70742188 4.72582031 0.53984375 3.63914063 0.3671875 2.51953125 C0.24601562 1.68808594 0.12484375 0.85664063 0 0 Z " fill="#230F0B" transform="translate(269,190)"/>
<path d="M0 0 C0.33 0.66 0.66 1.32 1 2 C-0.07674702 4.28258633 -1.19546116 6.4356434 -2.4375 8.625 C-2.77587891 9.23601562 -3.11425781 9.84703125 -3.46289062 10.4765625 C-4.30146192 11.988353 -5.14982577 13.49470399 -6 15 C-6.66 14.67 -7.32 14.34 -8 14 C-6.6744419 10.37723685 -5.05653045 7.36494652 -2.875 4.1875 C-2.33617187 3.39730469 -1.79734375 2.60710937 -1.2421875 1.79296875 C-0.83226562 1.20128906 -0.42234375 0.60960937 0 0 Z " fill="#2C1A12" transform="translate(328,142)"/>
<path d="M0 0 C-2.475 3.465 -2.475 3.465 -5 7 C-5.99 6.01 -6.98 5.02 -8 4 C-7 1 -7 1 -5.125 -0.25 C-3 -1 -3 -1 0 0 Z " fill="#DACD34" transform="translate(389,81)"/>
<path d="M0 0 C0.33 0 0.66 0 1 0 C1 3.96 1 7.92 1 12 C-0.32 12 -1.64 12 -3 12 C-3 10.68 -3 9.36 -3 8 C-2.34 8 -1.68 8 -1 8 C-0.67 5.36 -0.34 2.72 0 0 Z " fill="#F88619" transform="translate(297,224)"/>
<path d="M0 0 C1.20628008 2.33214148 2.1654738 4.49642139 3 7 C2.0625 9.1875 2.0625 9.1875 1 11 C1 10.01 1 9.02 1 8 C0.01 8 -0.98 8 -2 8 C-1.34 5.36 -0.68 2.72 0 0 Z " fill="#27140E" transform="translate(295,210)"/>
<path d="M0 0 C0.33 0 0.66 0 1 0 C1.25 5.625 1.25 5.625 -1 9 C-1.66 9 -2.32 9 -3 9 C-3 9.66 -3 10.32 -3 11 C-3.66 10.67 -4.32 10.34 -5 10 C-3.35 6.7 -1.7 3.4 0 0 Z " fill="#140F0C" transform="translate(352,143)"/>
<path d="M0 0 C0.66 0.99 1.32 1.98 2 3 C1.15955106 6.43183318 0.51471866 8.48528134 -2 11 C-2.95465783 8.83032311 -3.14401212 7.43671207 -2.3984375 5.17578125 C-1.64129615 3.4315257 -0.82390802 1.71372869 0 0 Z " fill="#DC8C25" transform="translate(310,180)"/>
<path d="M0 0 C0.33 0 0.66 0 1 0 C1.33 5.61 1.66 11.22 2 17 C1.67 17 1.34 17 1 17 C1 14.69 1 12.38 1 10 C0.34 10 -0.32 10 -1 10 C-2.31223496 6.06329512 -1.24296256 3.87511856 0 0 Z " fill="#B6A72D" transform="translate(411,160)"/>
<path d="M0 0 C0.33 0 0.66 0 1 0 C1 5.94 1 11.88 1 18 C0.67 18 0.34 18 0 18 C0 13.38 0 8.76 0 4 C-0.66 4 -1.32 4 -2 4 C-1.34 2.68 -0.68 1.36 0 0 Z " fill="#C96F27" transform="translate(290,152)"/>
<path d="M0 0 C0 3.92896395 -1.00299863 7.19893228 -2 11 C-2.66 10.67 -3.32 10.34 -4 10 C-4.41176754 6.39703406 -4.1535853 5.21597933 -2 2.1875 C-1.34 1.465625 -0.68 0.74375 0 0 Z " fill="#D47B25" transform="translate(297,143)"/>
<path d="M0 0 C0.99 0.33 1.98 0.66 3 1 C3 1.66 3 2.32 3 3 C3.66 3.33 4.32 3.66 5 4 C4.21625 4.28875 3.4325 4.5775 2.625 4.875 C-0.09671632 5.84912254 -0.09671632 5.84912254 -2 8 C-2.99 7.67 -3.98 7.34 -5 7 C-4.0409375 6.1028125 -4.0409375 6.1028125 -3.0625 5.1875 C-0.79689611 3.09189663 -0.79689611 3.09189663 0 0 Z " fill="#1A160C" transform="translate(274,165)"/>
<path d="M0 0 C0.66 0 1.32 0 2 0 C2 0.66 2 1.32 2 2 C4.31 2 6.62 2 9 2 C5.46588679 4.12046792 2.05606165 4.53199289 -2 5 C-1.34 3.35 -0.68 1.7 0 0 Z " fill="#DC7029" transform="translate(375,110)"/>
<path d="M0 0 C1.62463842 -0.05395478 3.24978541 -0.09277195 4.875 -0.125 C5.77992188 -0.14820312 6.68484375 -0.17140625 7.6171875 -0.1953125 C10 0 10 0 12 2 C7.47907032 3.45606519 4.48351204 2.27032841 0 1 C0 0.67 0 0.34 0 0 Z " fill="#F18124" transform="translate(166,109)"/>
<path d="M0 0 C0.66 0.33 1.32 0.66 2 1 C1.34 2.32 0.68 3.64 0 5 C-1.98 5 -3.96 5 -6 5 C-6.33 4.34 -6.66 3.68 -7 3 C-4.69631264 1.93347808 -2.35981813 0.93578995 0 0 Z " fill="#E6942C" transform="translate(341,277)"/>
<path d="M0 0 C-0.33 2.97 -0.66 5.94 -1 9 C-1.66 9 -2.32 9 -3 9 C-3 6.36 -3 3.72 -3 1 C-1 0 -1 0 0 0 Z " fill="#1F190D" transform="translate(414,151)"/>
<path d="M0 0 C0.66 0.99 1.32 1.98 2 3 C0.824375 3.1546875 0.824375 3.1546875 -0.375 3.3125 C-3.33045181 3.77595022 -3.33045181 3.77595022 -5 7 C-5.99 7 -6.98 7 -8 7 C-8 6.34 -8 5.68 -8 5 C-5.35153397 2.63785462 -3.38483604 1.12827868 0 0 Z " fill="#F46A16" transform="translate(296,306)"/>
<path d="M0 0 C0.66 0.33 1.32 0.66 2 1 C1.67 1.66 1.34 2.32 1 3 C0.34 3 -0.32 3 -1 3 C-1 3.66 -1 4.32 -1 5 C-3.31 5.33 -5.62 5.66 -8 6 C-5.38485683 3.87961365 -2.80362384 1.86908256 0 0 Z " fill="#DD7C24" transform="translate(322,286)"/>
<path d="M0 0 C4 4.5 4 4.5 4 9 C3.34 9 2.68 9 2 9 C2 8.01 2 7.02 2 6 C1.34 6 0.68 6 0 6 C0 4.02 0 2.04 0 0 Z " fill="#24100C" transform="translate(272,253)"/>
<path d="M0 0 C1.258125 -0.04125 2.51625 -0.0825 3.8125 -0.125 C4.52019531 -0.14820312 5.22789062 -0.17140625 5.95703125 -0.1953125 C8 0 8 0 11 2 C11 2.66 11 3.32 11 4 C7.37 3.01 3.74 2.02 0 1 C0 0.67 0 0.34 0 0 Z " fill="#D7862B" transform="translate(185,115)"/>
<path d="M0 0 C1.485 0.99 1.485 0.99 3 2 C2.67 4.64 2.34 7.28 2 10 C0 8 0 8 -0.1953125 6.0546875 C-0.13020833 4.03645833 -0.06510417 2.01822917 0 0 Z " fill="#DF7228" transform="translate(280,253)"/>
<path d="M0 0 C0.33 0 0.66 0 1 0 C1.02712066 1.43739513 1.04645067 2.87493863 1.0625 4.3125 C1.07410156 5.11300781 1.08570313 5.91351563 1.09765625 6.73828125 C1 9 1 9 0 12 C-0.66 12 -1.32 12 -2 12 C-2 10.35 -2 8.7 -2 7 C-1.34 7 -0.68 7 0 7 C0 4.69 0 2.38 0 0 Z " fill="#E7D62E" transform="translate(412,177)"/>
<path d="M0 0 C-1.1858237 3.37503669 -2.27573689 5.64722731 -5 8 C-5.66 7.34 -6.32 6.68 -7 6 C-6.01 5.34 -5.02 4.68 -4 4 C-4 3.01 -4 2.02 -4 1 C-2 0 -2 0 0 0 Z " fill="#ECD633" transform="translate(381,91)"/>
<path d="M0 0 C-0.33 0.99 -0.66 1.98 -1 3 C-4.3 2.34 -7.6 1.68 -11 1 C-9.68 0.67 -8.36 0.34 -7 0 C-6.319375 -0.20625 -5.63875 -0.4125 -4.9375 -0.625 C-3 -1 -3 -1 0 0 Z " fill="#D6711E" transform="translate(181,111)"/>
<path d="M0 0 C-0.99 1.485 -0.99 1.485 -2 3 C-3.65 2.67 -5.3 2.34 -7 2 C-7 1.34 -7 0.68 -7 0 C-3.86650268 -1.04449911 -3.01031744 -0.93423645 0 0 Z " fill="#1C140D" transform="translate(360,283)"/>
<path d="M0 0 C0.33 0 0.66 0 1 0 C1.125 3.375 1.125 3.375 1 7 C0.34 7.66 -0.32 8.32 -1 9 C-2 8 -2 8 -2.1875 5.625 C-2 3 -2 3 0 0 Z " fill="#080305" transform="translate(298,206)"/>
<path d="M0 0 C1.2065625 0.0309375 1.2065625 0.0309375 2.4375 0.0625 C2.1075 1.0525 1.7775 2.0425 1.4375 3.0625 C0.1175 2.7325 -1.2025 2.4025 -2.5625 2.0625 C-2.8925 3.3825 -3.2225 4.7025 -3.5625 6.0625 C-3.605221 4.39638095 -3.60313832 2.72867115 -3.5625 1.0625 C-2.5625 0.0625 -2.5625 0.0625 0 0 Z " fill="#F0BD23" transform="translate(347.5625,146.9375)"/>
</svg>
